<?xml version="1.0" encoding="ISO-8859-1" standalone="no"?>
<!DOCTYPE svg PUBLIC "-//W3C//DTD SVG 1.1//EN"
  "http://www.w3.org/Graphics/SVG/1.1/DTD/svg11.dtd"
>
<svg xmlns="http://www.w3.org/2000/svg" version="1.1"
  xmlns:xlink="http://www.w3.org/1999/xlink"
  width="640px" height="512px" >
  
  <desc>IDL Graphic, created by IDL 8.2.3 [integration_EP build Sun Mar 03 17:45:49 2013, Mon Mar 04 11:21:38 2013</desc>

<g id="Data_Space">
  <clipPath id="Data_Spaceclip">
    <rect x="81.0" y="61.0" width="509.0" height="385.0"/>
  </clipPath>

<g id="Background">
<g>
<polygon style="fill:rgb(255,255,255);fill-opacity:0.00;"
  points="81.0,446.0 590.0,446.0 590.0,61.0 81.0,61.0" />
</g>
</g>

<g id="Plot" clip-path="url(#Data_Spaceclip)">
<g id="Plot_1">
<polyline style="fill:none;stroke-linecap:square;stroke:rgb(0,0,0);stroke-width:1;"
  points="81.0,253.5 83.5,206.1 86.1,162.6 88.6,125.6 91.2,97.3 93.7,79.4 96.3,72.6 98.8,77.2 101.4,92.7 103.9,117.9 106.4,151.1 109.0,190.0 111.5,232.1 114.1,274.7 116.6,315.1 119.2,350.9 121.7,379.9 124.3,400.4 126.8,411.4 129.4,412.4 131.9,403.4 134.4,385.2 137.0,359.3 139.5,327.2 142.1,291.2 144.6,253.5 147.2,216.6 149.7,182.7 152.3,153.9 154.8,131.9 157.4,117.9 159.9,112.6 162.4,116.2 165.0,128.3 167.5,147.9 170.1,173.8 172.6,204.1 175.2,236.8 177.7,270.0 180.3,301.5 182.8,329.3 185.3,351.9 187.9,367.9 190.4,376.5 193.0,377.2 195.5,370.2 198.1,356.1 200.6,335.9 203.2,310.9 205.7,282.8 208.3,253.5 210.8,224.8 213.3,198.4 215.9,175.9 218.4,158.8 221.0,147.9 223.5,143.8 226.1,146.6 228.6,156.0 231.2,171.3 233.7,191.4 236.2,215.0 238.8,240.5 241.3,266.3 243.9,290.9 246.4,312.6 249.0,330.2 251.5,342.6 254.1,349.3 256.6,349.9 259.1,344.4 261.7,333.4 264.2,317.6 266.8,298.2 269.3,276.3 271.9,253.5 274.4,231.1 277.0,210.6 279.5,193.1 282.1,179.7 284.6,171.2 287.1,168.0 289.7,170.2 292.2,177.5 294.8,189.5 297.3,205.1 299.9,223.5 302.4,243.4 305.0,263.5 307.5,282.6 310.0,299.5 312.6,313.2 315.1,322.9 317.7,328.1 320.2,328.5 322.8,324.3 325.3,315.7 327.9,303.5 330.4,288.3 333.0,271.3 335.5,253.5 338.0,236.1 340.6,220.1 343.1,206.5 345.7,196.1 348.2,189.4 350.8,186.9 353.3,188.6 355.9,194.3 358.4,203.6 361.0,215.8 363.5,230.1 366.0,245.6 368.6,261.3 371.1,276.2 373.7,289.3 376.2,300.0 378.8,307.6 381.3,311.6 383.9,311.9 386.4,308.6 388.9,302.0 391.5,292.4 394.0,280.6 396.6,267.4 399.1,253.5 401.7,239.9 404.2,227.5 406.8,216.9 409.3,208.8 411.9,203.6 414.4,201.7 416.9,203.0 419.5,207.4 422.0,214.7 424.6,224.2 427.1,235.3 429.7,247.4 432.2,259.6 434.8,271.2 437.3,281.4 439.8,289.7 442.4,295.6 444.9,298.8 447.5,299.0 450.0,296.4 452.6,291.2 455.1,283.8 457.7,274.6 460.2,264.3 462.8,253.5 465.3,242.9 467.8,233.2 470.4,225.0 472.9,218.7 475.5,214.6 478.0,213.1 480.6,214.2 483.1,217.6 485.7,223.3 488.2,230.7 490.7,239.3 493.3,248.7 495.8,258.2 498.4,267.2 500.9,275.2 503.5,281.7 506.0,286.3 508.6,288.7 511.1,288.9 513.7,286.9 516.2,282.9 518.7,277.1 521.3,269.9 523.8,261.9 526.4,253.5 528.9,245.3 531.5,237.7 534.0,231.3 536.6,226.4 539.1,223.2 541.6,222.1 544.2,222.9 546.7,225.6 549.3,229.9 551.8,235.7 554.4,242.5 556.9,249.8 559.5,257.2 562.0,264.2 564.5,270.4 567.1,275.5 569.6,279.0 572.2,280.9 574.7,281.1 577.3,279.5 579.8,276.4 582.4,271.9 584.9,266.3 587.5,260.0" />
</g>
</g>

<g id="Axes">
<g id="Axis_0">
<polyline style="stroke-linecap:square;stroke:rgb(0,0,0);stroke-width:1;"
  points="81.0,446.0 590.0,446.0" />
<polyline style="stroke-linecap:square;stroke:rgb(0,0,0);stroke-width:1;"
  points="81.0,446.0 81.0,428.3" />
<path style="stroke-linecap:square;stroke:rgb(0,0,0);stroke-width:1;" d=" M 106.5,446.0 L 106.5,437.1 M 131.9,446.0 L 131.9,437.1 M 157.4,446.0 L 157.4,437.1 M 182.8,446.0 L 182.8,437.1" />
<polyline style="stroke-linecap:square;stroke:rgb(0,0,0);stroke-width:1;"
  points="208.3,446.0 208.3,428.3" />
<path style="stroke-linecap:square;stroke:rgb(0,0,0);stroke-width:1;" d=" M 233.7,446.0 L 233.7,437.1 M 259.2,446.0 L 259.2,437.1 M 284.6,446.0 L 284.6,437.1 M 310.1,446.0 L 310.1,437.1" />
<polyline style="stroke-linecap:square;stroke:rgb(0,0,0);stroke-width:1;"
  points="335.5,446.0 335.5,428.3" />
<path style="stroke-linecap:square;stroke:rgb(0,0,0);stroke-width:1;" d=" M 361.0,446.0 L 361.0,437.1 M 386.4,446.0 L 386.4,437.1 M 411.9,446.0 L 411.9,437.1 M 437.3,446.0 L 437.3,437.1" />
<polyline style="stroke-linecap:square;stroke:rgb(0,0,0);stroke-width:1;"
  points="462.8,446.0 462.8,428.3" />
<path style="stroke-linecap:square;stroke:rgb(0,0,0);stroke-width:1;" d=" M 488.2,446.0 L 488.2,437.1 M 513.7,446.0 L 513.7,437.1 M 539.1,446.0 L 539.1,437.1 M 564.6,446.0 L 564.6,437.1" />
<polyline style="stroke-linecap:square;stroke:rgb(0,0,0);stroke-width:1;"
  points="590.0,446.0 590.0,428.3" />
<text style="font-family:Helvetica;font-size:16;fill:rgb(0,0,0);text-anchor:middle;" x="81.0" y="446.0" dy="1.1em">0</text>
<text style="font-family:Helvetica;font-size:16;fill:rgb(0,0,0);text-anchor:middle;" x="208.3" y="446.0" dy="1.1em">50</text>
<text style="font-family:Helvetica;font-size:16;fill:rgb(0,0,0);text-anchor:middle;" x="335.5" y="446.0" dy="1.1em">100</text>
<text style="font-family:Helvetica;font-size:16;fill:rgb(0,0,0);text-anchor:middle;" x="462.8" y="446.0" dy="1.1em">150</text>
<text style="font-family:Helvetica;font-size:16;fill:rgb(0,0,0);text-anchor:middle;" x="590.0" y="446.0" dy="1.1em">200</text>
</g>
<g id="Axis_1">
<polyline style="stroke-linecap:square;stroke:rgb(0,0,0);stroke-width:1;"
  points="81.0,446.0 81.0,61.0" />
<polyline style="stroke-linecap:square;stroke:rgb(0,0,0);stroke-width:1;"
  points="81.0,446.0 98.8,446.0" />
<path style="stroke-linecap:square;stroke:rgb(0,0,0);stroke-width:1;" d=" M 81.0,426.8 L 89.9,426.8 M 81.0,407.5 L 89.9,407.5 M 81.0,388.3 L 89.9,388.3 M 81.0,369.0 L 89.9,369.0" />
<polyline style="stroke-linecap:square;stroke:rgb(0,0,0);stroke-width:1;"
  points="81.0,349.8 98.8,349.8" />
<path style="stroke-linecap:square;stroke:rgb(0,0,0);stroke-width:1;" d=" M 81.0,330.5 L 89.9,330.5 M 81.0,311.3 L 89.9,311.3 M 81.0,292.0 L 89.9,292.0 M 81.0,272.8 L 89.9,272.8" />
<polyline style="stroke-linecap:square;stroke:rgb(0,0,0);stroke-width:1;"
  points="81.0,253.5 98.8,253.5" />
<path style="stroke-linecap:square;stroke:rgb(0,0,0);stroke-width:1;" d=" M 81.0,234.3 L 89.9,234.3 M 81.0,215.0 L 89.9,215.0 M 81.0,195.8 L 89.9,195.8 M 81.0,176.5 L 89.9,176.5" />
<polyline style="stroke-linecap:square;stroke:rgb(0,0,0);stroke-width:1;"
  points="81.0,157.3 98.8,157.3" />
<path style="stroke-linecap:square;stroke:rgb(0,0,0);stroke-width:1;" d=" M 81.0,138.0 L 89.9,138.0 M 81.0,118.8 L 89.9,118.8 M 81.0,99.5 L 89.9,99.5 M 81.0,80.3 L 89.9,80.3" />
<polyline style="stroke-linecap:square;stroke:rgb(0,0,0);stroke-width:1;"
  points="81.0,61.0 98.8,61.0" />
<text style="font-family:Helvetica;font-size:16;fill:rgb(0,0,0);text-anchor:end;alignment-baseline:central;" x="81.0" dx="-0.3em" y="446.0">-1.0</text>
<text style="font-family:Helvetica;font-size:16;fill:rgb(0,0,0);text-anchor:end;alignment-baseline:central;" x="81.0" dx="-0.3em" y="349.8">-0.5</text>
<text style="font-family:Helvetica;font-size:16;fill:rgb(0,0,0);text-anchor:end;alignment-baseline:central;" x="81.0" dx="-0.3em" y="253.5">0.0</text>
<text style="font-family:Helvetica;font-size:16;fill:rgb(0,0,0);text-anchor:end;alignment-baseline:central;" x="81.0" dx="-0.3em" y="157.3">0.5</text>
<text style="font-family:Helvetica;font-size:16;fill:rgb(0,0,0);text-anchor:end;alignment-baseline:central;" x="81.0" dx="-0.3em" y="61.0">1.0</text>
</g>
<g id="Axis_2">
<polyline style="stroke-linecap:square;stroke:rgb(0,0,0);stroke-width:1;"
  points="81.0,61.0 590.0,61.0" />
<polyline style="stroke-linecap:square;stroke:rgb(0,0,0);stroke-width:1;"
  points="81.0,61.0 81.0,78.7" />
<path style="stroke-linecap:square;stroke:rgb(0,0,0);stroke-width:1;" d=" M 106.5,61.0 L 106.5,69.9 M 131.9,61.0 L 131.9,69.9 M 157.4,61.0 L 157.4,69.9 M 182.8,61.0 L 182.8,69.9" />
<polyline style="stroke-linecap:square;stroke:rgb(0,0,0);stroke-width:1;"
  points="208.3,61.0 208.3,78.7" />
<path style="stroke-linecap:square;stroke:rgb(0,0,0);stroke-width:1;" d=" M 233.7,61.0 L 233.7,69.9 M 259.2,61.0 L 259.2,69.9 M 284.6,61.0 L 284.6,69.9 M 310.1,61.0 L 310.1,69.9" />
<polyline style="stroke-linecap:square;stroke:rgb(0,0,0);stroke-width:1;"
  points="335.5,61.0 335.5,78.7" />
<path style="stroke-linecap:square;stroke:rgb(0,0,0);stroke-width:1;" d=" M 361.0,61.0 L 361.0,69.9 M 386.4,61.0 L 386.4,69.9 M 411.9,61.0 L 411.9,69.9 M 437.3,61.0 L 437.3,69.9" />
<polyline style="stroke-linecap:square;stroke:rgb(0,0,0);stroke-width:1;"
  points="462.8,61.0 462.8,78.7" />
<path style="stroke-linecap:square;stroke:rgb(0,0,0);stroke-width:1;" d=" M 488.2,61.0 L 488.2,69.9 M 513.7,61.0 L 513.7,69.9 M 539.1,61.0 L 539.1,69.9 M 564.6,61.0 L 564.6,69.9" />
<polyline style="stroke-linecap:square;stroke:rgb(0,0,0);stroke-width:1;"
  points="590.0,61.0 590.0,78.7" />
</g>
<g id="Axis_3">
<polyline style="stroke-linecap:square;stroke:rgb(0,0,0);stroke-width:1;"
  points="590.0,446.0 590.0,61.0" />
<polyline style="stroke-linecap:square;stroke:rgb(0,0,0);stroke-width:1;"
  points="590.0,446.0 572.2,446.0" />
<path style="stroke-linecap:square;stroke:rgb(0,0,0);stroke-width:1;" d=" M 590.0,426.8 L 581.1,426.8 M 590.0,407.5 L 581.1,407.5 M 590.0,388.3 L 581.1,388.3 M 590.0,369.0 L 581.1,369.0" />
<polyline style="stroke-linecap:square;stroke:rgb(0,0,0);stroke-width:1;"
  points="590.0,349.8 572.2,349.8" />
<path style="stroke-linecap:square;stroke:rgb(0,0,0);stroke-width:1;" d=" M 590.0,330.5 L 581.1,330.5 M 590.0,311.3 L 581.1,311.3 M 590.0,292.0 L 581.1,292.0 M 590.0,272.8 L 581.1,272.8" />
<polyline style="stroke-linecap:square;stroke:rgb(0,0,0);stroke-width:1;"
  points="590.0,253.5 572.2,253.5" />
<path style="stroke-linecap:square;stroke:rgb(0,0,0);stroke-width:1;" d=" M 590.0,234.3 L 581.1,234.3 M 590.0,215.0 L 581.1,215.0 M 590.0,195.8 L 581.1,195.8 M 590.0,176.5 L 581.1,176.5" />
<polyline style="stroke-linecap:square;stroke:rgb(0,0,0);stroke-width:1;"
  points="590.0,157.3 572.2,157.3" />
<path style="stroke-linecap:square;stroke:rgb(0,0,0);stroke-width:1;" d=" M 590.0,138.0 L 581.1,138.0 M 590.0,118.8 L 581.1,118.8 M 590.0,99.5 L 581.1,99.5 M 590.0,80.3 L 581.1,80.3" />
<polyline style="stroke-linecap:square;stroke:rgb(0,0,0);stroke-width:1;"
  points="590.0,61.0 572.2,61.0" />
</g>
</g>
</g>
<g id="Data_Space_1">

<g id="Background_1">
</g>
</g>
</svg>